<?xml version="1.0" encoding="UTF-8"?>
<svg width="24" height="24" viewBox="0 0 24 24" fill="none" xmlns="http://www.w3.org/2000/svg">
  <path d="M24 12C24 18.6274 18.6274 24 12 24C5.37258 24 0 18.6274 0 12C0 5.37258 5.37258 0 12 0C18.6274 0 24 5.37258 24 12ZM12 21.6C16.9411 21.6 21.6 16.9411 21.6 12C21.6 7.05888 16.9411 2.4 12 2.4C7.05888 2.4 2.4 7.05888 2.4 12C2.4 16.9411 7.05888 21.6 12 21.6ZM12 18C15.3137 18 18 15.3137 18 12C18 8.68629 15.3137 6 12 6C8.68629 6 6 8.68629 6 12C6 15.3137 8.68629 18 12 18Z" fill="currentColor"/>
</svg>
